PathFileType	4	(X/Y/Z)	pose_F01_0-75.trc
DataRate	CameraRate	NumFrames	NumMarkers	Units	OrigDataRate	OrigDataStartFrame	OrigNumFrames
30	30	4	21	m	30	0	75
Frame#	Time	CHip			RHip			RKnee			RAnkle			RBigToe			RSmallToe			RHeel			LHip			LKnee			LAnkle			LBigToe			LSmallToe			LHeel			Neck			Nose			RShoulder			RElbow			RWrist			LShoulder			LElbow			LWrist			
		X1	Y1	Z1	X2	Y2	Z2	X3	Y3	Z3	X4	Y4	Z4	X5	Y5	Z5	X6	Y6	Z6	X7	Y7	Z7	X8	Y8	Z8	X9	Y9	Z9	X10	Y10	Z10	X11	Y11	Z11	X12	Y12	Z12	X13	Y13	Z13	X14	Y14	Z14	X15	Y15	Z15	X16	Y16	Z16	X17	Y17	Z17	X18	Y18	Z18	X19	Y19	Z19	X20	Y20	Z20	X21	Y21	Z21	
0	0.0	-0.24743602480395363	1.8288067364695246	-0.457589754280345	-0.26154031471122524	1.8297184506928355	-0.40122024590344196	-0.24034517195853006	1.7131075495913877	-0.4477615356682762	-0.1891719018611069	1.6090871174269177	-0.5335061665124327	-0.20133129334533562	1.5886783080986502	-0.523165802034298				-0.18424164151021458	1.5998014167175847	-0.5427066082513693	-0.23043220256960054	1.833949358891016	-0.5166191765388944	-0.22501244899660947	1.713095723130791	-0.5141032612135285	-0.20665687861112586	1.5909323005723675	-0.5437334499681288	-0.20252136921595806	1.5698538706896328	-0.585742828931635	-0.21861329459404988	1.5664156359734762	-0.5684330320659491	-0.16623151108870568	1.6036300748670351	-0.592793396417493	-1.79196372339272	1.890143541251623	1.2568087959590235	-0.25674364199591865	2.0516836225142163	-0.4938809238618224	-0.25548504138066913	1.977429616675874	-0.37404536228635926	-0.26379412582995165	1.8969186288569115	-0.34281179072306384	-0.27983778406971765	1.8246703310168044	-0.3432581678676607	-0.21732759053967035	1.986180538348207	-0.5605888775598858	-0.21285366006158388	1.9025457302409787	-0.5737830783334115	-0.2187378575311367	1.8290206735324357	-0.5890527565405754
1	0.03333333333333333	-0.24762455976625292	1.830285097982936	-0.4577178173224606	-0.26175358357443973	1.8286879594183845	-0.4009793332612173	-0.24034517195853006	1.7131075495913877	-0.4477615356682762	-0.1891719018611069	1.6090871174269177	-0.5335061665124327	-0.20133129334533562	1.5886783080986502	-0.523165802034298				-0.18424164151021458	1.5998014167175847	-0.5427066082513693	-0.2336334912406813	1.8338736214005689	-0.5176349042909205	-0.22501244899660947	1.713095723130791	-0.5141032612135285	-0.20665687861112586	1.5909323005723675	-0.5437334499681288	-0.20252136921595806	1.5698538706896328	-0.585742828931635	-0.21861329459404988	1.5664156359734762	-0.5684330320659491	-0.16623151108870568	1.6036300748670351	-0.592793396417493	-1.7917986816332006	1.8901217064141824	1.256521818518063	-0.2547403093849574	2.052908015767543	-0.49585484083909315	-0.2573281411178489	1.977507213092495	-0.37204119944509956	-0.2658484680947196	1.8950307198049414	-0.34051472143445466	-0.27804707017099295	1.8229161341074085	-0.3450003083027442	-0.21741773891676452	1.9849105263421796	-0.5605908872628117	-0.21376218088360305	1.9032150115236846	-0.5769113039430149	-0.22138935835595588	1.8320591552537944	-0.5869457924173197
2	0.06666666666666667	-0.2478130947285522	1.8317634594963472	-0.4578458803645762	-0.2619668524376542	1.8276574681439335	-0.4007384206189927	-0.24034517195853006	1.7131075495913877	-0.4477615356682762	-0.1891719018611069	1.6090871174269177	-0.5335061665124327	-0.20133129334533562	1.5886783080986502	-0.523165802034298				-0.18424164151021458	1.5998014167175847	-0.5427066082513693	-0.23683477991176208	1.8337978839101217	-0.5186506320429466	-0.22501244899660947	1.713095723130791	-0.5141032612135285	-0.20665687861112586	1.5909323005723675	-0.5437334499681288	-0.20252136921595806	1.5698538706896328	-0.585742828931635	-0.21861329459404988	1.5664156359734762	-0.5684330320659491	-0.16623151108870568	1.6036300748670351	-0.592793396417493	-1.7916336398736812	1.8900998715767419	1.2562348410771027	-0.25273697677399615	2.0541324090208692	-0.4978287578163639	-0.2591712408550287	1.9775848095091162	-0.37003703660383985	-0.2679028103594876	1.8931428107529713	-0.3382176521458455	-0.27625635627226824	1.8211619371980126	-0.34674244873782767	-0.2175078872938587	1.9836405143361522	-0.5605928969657376	-0.21467070170562222	1.9038842928063904	-0.5800395295526184	-0.22404085918077507	1.835097636975153	-0.584838828294064
3	0.1	-0.2456099182474734	1.8320925083976547	-0.4601207954436838	-0.2617698228357229	1.8287463995391389	-0.4010478953896673	-0.24034517195853006	1.7131075495913877	-0.4477615356682762	-0.1891719018611069	1.6090871174269177	-0.5335061665124327	-0.20133129334533562	1.5886783080986502	-0.523165802034298				-0.18424164151021458	1.5998014167175847	-0.5427066082513693	-0.2344479312456044	1.8355263753124031	-0.5211539395015711	-0.22501244899660947	1.713095723130791	-0.5141032612135285	-0.20665687861112586	1.5909323005723675	-0.5437334499681288	-0.20252136921595806	1.5698538706896328	-0.585742828931635	-0.21861329459404988	1.5664156359734762	-0.5684330320659491	-0.16623151108870568	1.6036300748670351	-0.592793396417493	-1.7915760959719327	1.8900951160457924	1.2561403729826173	-0.2537279119509895	2.0553351699344184	-0.5015079623559544	-0.25918704812659943	1.977674768406983	-0.3699776047240398	-0.26787720364906875	1.8932415775340699	-0.3382757019226733	-0.27619923810652425	1.8202010246113602	-0.34665256012424733	-0.21741713974063095	1.9846097494584605	-0.5606055285175723	-0.21386755761481646	1.9015140911087116	-0.5768191900813886	-0.22575907951906019	1.830292781439699	-0.5822714213034217
